# xmcd CD Database Entry
#
# Track frame offsets:
# 150
# 19620
# 37381
# 51860
# 78567
# 95422
# 112089
# 129171
# 144669
# 163728
# 181594
# 201815
# 219561
# 241324
#
# Disc length: 3463 seconds
#
# Revision: 1
# Processed by: cddbd v1.4PL0 Copyright (c) Steve Scherf et al.
# Submitted via: tcd 2.0b
#
DISCID=c30d850e
DTITLE=Shaggy - The best of Shaggy Part 1
DYEAR=1900
DGENRE=
TTITLE0=Boombastic [ Sting Remix ]
TTITLE1=In the Summertime - Shaggy feat. Rayvon
TTITLE2=Oh Carolina
TTITLE3=Luv Me Luv Me - Shaggy Feat. Janet Jackson
TTITLE4=Nice and Lovely
TTITLE5=The Train is coming
TTITLE6=Why you treat me so bad
TTITLE7=Big Up - Shaggy Feat. Rayvon
TTITLE8=Piece of my heart
TTITLE9=Sexy Body Girl
TTITLE10=Something Different
TTITLE11=That Girl
TTITLE12=Get Up, Stand Up
TTITLE13=Boombastic
EXTD=
EXTT0=
EXTT1=
EXTT2=
EXTT3=
EXTT4=
EXTT5=
EXTT6=
EXTT7=
EXTT8=
EXTT9=
EXTT10=
EXTT11=
EXTT12=
EXTT13=
PLAYORDER=
